<svg version="1.1" id="Layer_1" xmlns="http://www.w3.org/2000/svg" xmlns:xlink="http://www.w3.org/1999/xlink" x="0px" y="0px"
	 width="100%" viewBox="0 0 900 600" enable-background="new 0 0 900 600" xml:space="preserve">
<path fill="#000000" opacity="1.000000" stroke="none" 
	d="
M572.000000,601.000000 
	C381.333344,601.000000 191.166672,601.000000 1.000000,601.000000 
	C1.000000,401.000000 1.000000,201.000000 1.000000,1.000000 
	C301.000000,1.000000 601.000000,1.000000 901.000000,1.000000 
	C901.000000,201.000000 901.000000,401.000000 901.000000,601.000000 
	C791.500000,601.000000 682.000000,601.000000 572.000000,601.000000 
M641.206665,430.144684 
	C641.354553,430.258820 641.502502,430.372986 641.511292,431.328369 
	C640.932800,439.749878 637.405273,448.048370 641.024597,456.636780 
	C644.045410,463.805145 645.531738,471.867706 649.673523,478.252502 
	C654.668213,485.952057 661.087341,493.337341 670.737366,495.708496 
	C677.873535,497.461914 684.054626,501.162598 692.481567,500.315247 
	C716.084106,497.941925 736.396606,488.348267 754.888000,474.735382 
	C769.116028,464.261139 782.277832,452.294922 795.527954,440.556641 
	C801.199219,435.532410 806.459717,429.812286 810.884766,423.671753 
	C816.576233,415.773987 822.088257,407.523407 826.116211,398.711121 
	C830.430786,389.271973 832.390869,378.648926 827.613831,368.781769 
	C823.548706,360.385132 818.312500,352.428528 812.679504,344.968048 
	C809.571655,340.851837 805.047119,337.042847 800.334534,335.070770 
	C792.280884,331.700470 783.659302,329.540924 775.126831,327.496613 
	C763.308533,324.665039 751.378845,322.295715 739.133972,322.000031 
	C737.513977,321.960907 735.925720,320.608307 734.322815,319.864044 
	C734.463928,319.393555 734.605103,318.923065 734.746277,318.452576 
	C730.042419,319.305603 727.119141,316.460358 727.490601,312.467712 
	C726.025696,310.773468 724.792603,309.794678 724.144348,308.518707 
	C721.608765,303.527557 711.216003,301.202667 707.603943,305.348175 
	C703.269714,310.322449 699.609680,315.881012 695.604797,321.146362 
	C693.138000,324.389557 690.315674,327.390930 688.105652,330.794769 
	C683.770752,337.471130 679.559082,344.244019 675.651245,351.176971 
	C670.679077,359.998291 666.021729,368.998535 661.307007,377.962799 
	C659.673279,381.069000 658.273499,384.298248 656.529785,387.970612 
	C655.578857,384.776550 655.291687,382.191467 654.105774,380.121155 
	C649.944702,372.856659 645.522766,365.739349 641.108765,358.622620 
	C635.811340,350.081512 628.122681,345.087158 618.367981,342.645966 
	C610.841858,340.762482 603.674561,337.269928 596.093811,335.822937 
	C585.992920,333.894897 575.634583,333.342041 565.414917,331.986298 
	C563.571655,331.741760 561.864075,330.474518 560.093811,329.679474 
	C560.239685,329.210388 560.385498,328.741333 560.531372,328.272247 
	C555.899719,329.241882 553.033691,326.446686 553.301270,322.287872 
	C551.915466,320.795715 550.675598,319.964111 550.146362,318.807373 
	C547.165283,312.291321 536.700928,310.679047 532.226807,316.365509 
	C526.245239,323.968079 520.283203,331.617279 514.847107,339.609894 
	C508.265686,349.286499 501.887665,359.140564 496.095123,369.301758 
	C491.828125,376.786835 488.659943,384.896515 484.960968,392.708405 
	C484.020172,394.695312 482.922791,396.608093 482.167145,398.042694 
	C480.104309,392.824097 478.513336,387.612640 476.069183,382.837891 
	C468.669861,368.383118 459.142853,356.686096 442.234589,351.866089 
	C429.053497,348.108582 415.786560,345.035492 402.393799,342.401489 
	C398.209412,341.578522 393.745941,342.274445 389.461945,341.804016 
	C387.957886,341.638855 386.608734,340.063202 384.297394,338.546692 
	C383.791626,338.314270 382.343201,337.536316 380.816284,336.969940 
	C377.414490,335.708099 377.415833,331.786377 375.895996,329.418091 
	C373.624908,325.879150 370.373749,325.108826 367.599854,323.171448 
	C364.515015,321.016907 361.869293,321.995178 359.539795,325.005341 
	C355.435516,330.308929 350.933777,335.303986 346.801941,340.587372 
	C342.603241,345.956177 338.374908,351.338409 334.669525,357.045837 
	C331.152985,362.462494 328.942261,368.809570 325.016510,373.860901 
	C316.673126,384.596497 312.079712,397.271881 305.775146,409.034363 
	C299.240295,421.226501 294.568359,434.282532 291.935028,447.960358 
	C291.597351,449.714294 291.116119,451.499298 291.162933,453.257599 
	C291.307129,458.672943 291.969818,464.086395 291.894165,469.493103 
	C291.742126,480.360931 295.867767,489.981506 301.131989,498.910309 
	C306.586884,508.162598 315.985870,513.385864 325.539642,517.561340 
	C334.895416,521.650269 344.729584,520.462708 354.559967,518.493408 
	C370.481567,515.303772 385.080627,509.007782 398.165100,499.647217 
	C412.310059,489.527985 426.181091,478.967468 439.565582,467.868561 
	C446.133301,462.422455 451.317596,455.311646 457.152710,448.976990 
	C460.509216,445.333099 463.915192,441.734741 467.967957,437.400299 
	C467.142365,443.378845 466.084869,448.125336 465.942413,452.899139 
	C465.804016,457.535858 466.450348,462.220886 467.058990,466.844299 
	C467.352325,469.072632 468.467560,471.179504 469.011322,473.390381 
	C472.097015,485.937683 479.255646,496.244080 490.029297,502.469421 
	C498.808105,507.542023 508.612030,511.676758 519.893188,510.011780 
	C532.202271,508.195038 544.405945,505.866211 555.176941,499.863708 
	C567.737427,492.863892 579.847534,484.866974 591.383118,476.269592 
	C603.152344,467.498047 614.654236,458.237518 624.563843,447.237579 
	C629.876282,441.340637 635.363586,435.601227 641.206665,430.144684 
M72.001747,145.209015 
	C72.006172,146.041580 71.817261,146.931503 72.044632,147.697922 
	C74.580521,156.245621 77.167122,164.778412 79.787453,173.300644 
	C80.014854,174.040207 80.624832,175.294037 80.980080,175.267761 
	C86.427689,174.864731 89.355408,180.670746 95.411766,180.408615 
	C98.984940,180.253937 100.478233,178.102570 103.097092,177.396606 
	C106.704918,176.424042 110.273048,175.190689 113.706787,173.716431 
	C117.471497,172.100052 121.064049,170.082687 124.731613,168.240051 
	C125.088760,168.628952 125.445915,169.017853 125.803062,169.406754 
	C123.305008,172.732178 120.216515,175.767685 118.415573,179.435394 
	C112.095596,192.306412 105.189751,205.031464 100.433830,218.492905 
	C94.464851,235.387909 84.447472,250.805176 82.286041,269.142487 
	C81.472633,276.043274 78.950478,282.757446 77.039795,289.509247 
	C75.624443,294.510742 73.624535,299.362518 72.448502,304.412201 
	C70.808815,311.452759 67.413017,318.240692 69.224541,325.890564 
	C69.615288,327.540619 68.620682,329.518707 68.264198,331.345703 
	C69.927849,333.952026 70.356743,336.884644 71.172150,339.705505 
	C71.528305,340.937622 72.444946,342.494751 73.509598,342.938538 
	C76.116714,344.025208 78.958046,344.550018 81.836075,345.336700 
	C82.016510,343.457855 82.118484,342.395996 82.258423,340.938782 
	C83.824768,342.097961 84.953537,342.933289 86.189705,343.848083 
	C86.715111,342.830231 87.121468,342.043030 87.568916,341.176178 
	C89.118347,342.984344 90.535049,344.637634 92.213264,346.596069 
	C93.595123,342.229828 94.709213,338.709625 96.015099,334.583435 
	C98.317276,335.715179 100.284164,336.682068 102.552750,337.797302 
	C103.639755,336.948853 106.101173,335.885742 107.151154,334.025848 
	C109.209663,330.379425 110.326492,326.216644 112.109863,322.396759 
	C116.693420,312.579010 121.356850,302.796753 126.139755,293.074768 
	C127.916435,289.463379 130.409195,286.190765 132.044495,282.526764 
	C133.987518,278.173218 135.240448,273.517303 137.008713,269.078583 
	C139.026306,264.013977 142.677505,260.499481 147.941986,258.892365 
	C152.504028,257.499664 157.121460,256.288910 161.710327,254.983429 
	C168.212540,253.133652 174.819855,251.579941 181.184982,249.339340 
	C190.223679,246.157639 199.019577,242.290787 208.034164,239.034958 
	C220.836990,234.410904 233.780243,230.176483 246.594955,225.584305 
	C255.861130,222.263763 264.852081,218.081421 274.263062,215.283188 
	C285.284119,212.006149 296.627655,209.813660 307.828308,207.151428 
	C306.534393,209.914215 305.007538,213.100555 303.543701,216.315582 
	C300.595978,222.789688 298.007202,229.451172 294.687195,235.726837 
	C287.825775,248.696777 283.600922,262.312714 282.190399,276.965424 
	C281.466919,284.481201 284.445496,289.991028 289.420715,294.758484 
	C293.121979,298.305176 297.236237,301.442413 301.327271,304.550476 
	C303.045868,305.856110 305.085846,306.911987 307.143951,307.559753 
	C310.906311,308.743927 314.790863,309.540009 319.892578,310.814850 
	C337.505768,295.600739 355.761871,279.831268 374.387146,263.742920 
	C374.685974,266.567780 375.312683,269.775360 375.304443,272.981323 
	C375.287445,279.622284 377.862427,285.854797 381.729218,290.332245 
	C386.682281,296.067444 393.780853,299.928467 402.038391,299.954102 
	C403.164581,299.957581 404.364838,299.671082 405.405823,299.226318 
	C408.855835,297.752502 409.363556,295.751068 409.491455,291.493774 
	C409.957611,275.973602 411.591339,260.445801 413.593689,245.025894 
	C415.818787,227.890274 423.962311,212.539368 429.536987,196.411057 
	C432.369110,188.217316 434.552704,179.799820 437.368469,171.599884 
	C441.180847,160.497513 430.116547,153.293076 422.787567,151.725677 
	C420.917725,148.733765 419.602631,146.459564 418.094849,144.321213 
	C417.646515,143.685471 416.139893,142.926147 415.992340,143.077240 
	C413.330505,145.802475 407.734222,145.499847 407.846893,151.201218 
	C407.882996,153.028488 407.115875,155.191559 406.005737,156.666031 
	C401.260040,162.969101 395.885284,168.822189 391.422882,175.309174 
	C385.324432,184.174438 379.544830,193.132401 372.180664,201.162857 
	C365.292023,208.674759 360.253632,217.849564 353.882629,225.881424 
	C349.294952,231.665131 343.856262,236.773773 338.797150,242.183533 
	C338.464905,241.925919 338.132660,241.668304 337.800446,241.410675 
	C339.197083,238.153320 340.507965,234.855911 342.006897,231.646317 
	C346.080078,222.924683 350.364685,214.299561 354.313446,205.522781 
	C357.637177,198.135208 360.620911,190.551605 358.941284,182.183319 
	C358.443207,179.701843 357.762939,176.918106 356.226074,175.043564 
	C350.084259,167.552170 339.951508,168.449829 332.199768,164.211670 
	C331.930939,164.064713 331.282959,164.473877 330.880188,164.731125 
	C327.756226,166.726288 322.326965,164.716324 321.182007,170.325638 
	C321.101410,170.720383 319.425201,170.912247 318.474182,170.987946 
	C305.498993,172.020889 292.510223,172.898468 279.547150,174.063202 
	C270.921173,174.838242 262.244446,175.544159 253.745972,177.119873 
	C242.614410,179.183792 231.723984,182.611328 220.563782,184.437561 
	C211.865570,185.860931 202.920898,185.575424 195.204895,190.926392 
	C193.747284,191.937241 191.431747,191.710953 188.115234,192.306213 
	C192.528778,185.125687 196.099442,178.923126 200.050095,172.972839 
	C207.718811,161.422607 215.609009,150.019547 223.379868,138.536835 
	C224.012268,137.602341 224.916077,136.503052 224.871216,135.517776 
	C224.653427,130.732941 228.089859,129.802307 231.528656,128.897263 
	C240.569275,126.517914 249.580063,123.996216 258.691254,121.919601 
	C284.061890,116.137184 309.579987,110.962982 334.819458,104.665245 
	C343.637115,102.465073 352.494965,98.715897 360.029297,93.709831 
	C364.714294,90.596962 369.140961,87.376381 374.419586,85.390511 
	C374.638733,85.308060 374.710754,84.834541 374.964539,84.308624 
	C373.729767,83.748428 372.527832,83.203133 370.261444,82.174911 
	C373.144165,80.805702 375.009064,79.919922 377.074707,78.938805 
	C376.472260,76.866524 375.912323,74.940514 375.228455,72.588142 
	C374.092773,73.596626 373.389038,74.221558 372.685303,74.846481 
	C372.693604,74.447327 372.701904,74.048164 372.710205,73.649002 
	C367.780304,73.649002 362.850403,73.649002 357.920532,73.649002 
	C357.770752,72.991562 357.620972,72.334129 357.471191,71.676689 
	C360.178711,70.842262 362.842926,69.800354 365.604340,69.224159 
	C369.337189,68.445259 373.711578,68.982193 376.759796,67.178535 
	C379.775909,65.393890 382.111176,63.847618 385.696228,64.792236 
	C386.479095,64.998505 387.661224,63.689201 388.659485,63.077915 
	C386.584045,61.128723 384.639160,57.709724 382.408203,57.511559 
	C376.222626,56.962124 369.916687,57.729969 363.660889,58.030376 
	C361.714935,58.123814 359.263855,57.702415 357.931885,58.700970 
	C353.952026,61.684601 350.077881,60.398624 345.996490,59.520805 
	C343.944366,59.079437 341.759857,58.899353 339.669434,59.056377 
	C333.289398,59.535625 326.915802,60.830368 320.558289,60.721855 
	C308.661041,60.518784 296.895508,59.333488 285.065643,62.733116 
	C277.616364,64.873848 269.514923,64.625755 261.825256,66.079681 
	C252.276321,67.885147 242.830063,70.257202 233.378235,72.544792 
	C226.315964,74.254044 219.314911,76.216354 212.287018,78.067551 
	C206.057129,79.708542 199.725296,81.045197 193.628479,83.084335 
	C188.078766,84.940483 182.849731,87.733902 177.360535,89.798256 
	C171.019821,92.182846 164.525635,94.156212 158.145569,96.440781 
	C155.341339,97.444923 152.708908,98.928993 149.904388,99.932152 
	C141.168793,103.056831 132.182907,105.577873 123.679901,109.231041 
	C114.210342,113.299477 105.041763,118.129448 95.987251,123.076485 
	C91.667587,125.436592 86.525391,126.460579 83.566437,131.413132 
	C81.593346,134.715591 78.506332,138.170578 75.103340,139.554642 
	C72.114586,140.770233 71.888214,142.009369 72.001747,145.209015 
M719.997498,148.465408 
	C710.800842,151.938522 701.396240,154.953705 692.464294,159.009720 
	C682.977478,163.317688 673.938965,168.612915 664.704712,173.477020 
	C667.023010,166.806320 669.964783,161.079636 672.689941,155.251648 
	C679.997498,139.624023 686.815735,123.753288 694.572632,108.354034 
	C702.748596,92.122818 712.333923,76.587769 720.173828,60.207863 
	C723.257935,53.764225 723.620178,45.894444 724.447266,38.586475 
	C724.638306,36.898800 721.975952,34.381874 720.063171,33.065174 
	C715.760742,30.103546 711.127869,27.615519 706.587769,25.007282 
	C700.570801,21.550619 691.021973,22.890232 687.363403,28.664801 
	C680.114868,40.105404 673.796997,52.134537 667.051208,63.895645 
	C665.745972,66.171425 663.975769,68.209503 662.877319,70.570030 
	C657.690063,81.717674 652.919434,93.065506 647.512268,104.102898 
	C640.586487,118.240196 633.120483,132.111969 626.062500,146.186020 
	C624.595398,149.111435 623.970093,152.448944 622.826538,155.548462 
	C619.257996,165.221207 615.464600,174.814316 612.071533,184.547470 
	C609.345947,192.365860 607.402283,200.375381 603.129272,207.706207 
	C600.728271,211.825256 596.899658,214.157166 594.330688,217.632965 
	C592.102112,220.648254 591.079773,225.046432 590.828430,228.918106 
	C590.438599,234.921234 591.814270,241.059692 591.238953,247.024796 
	C590.531250,254.364182 588.077148,261.532074 587.325012,268.871124 
	C586.590332,276.039825 587.692993,283.408661 586.829651,290.549500 
	C585.572449,300.947968 588.910156,309.435913 595.649048,316.874268 
	C596.271301,317.561157 598.687073,317.230408 599.901978,316.628815 
	C601.661987,315.757263 602.900696,313.603088 604.686707,313.055267 
	C611.154785,311.071289 613.614990,306.104523 614.915222,300.228912 
	C615.873535,295.898712 616.484497,291.491699 617.339600,286.608582 
	C618.285706,287.955536 618.928101,288.870087 619.998413,290.393921 
	C625.609192,272.819702 630.987488,255.973541 636.610046,238.362305 
	C643.925964,239.883072 651.210815,241.328842 658.461914,242.927475 
	C663.786987,244.101456 669.010315,246.043976 674.385925,246.588394 
	C679.034302,247.059174 683.276855,248.029739 687.662842,249.666611 
	C692.784851,251.578171 698.513977,251.801270 703.769348,253.433884 
	C709.536255,255.225388 714.930298,258.389740 721.323792,256.144989 
	C725.390503,254.717209 729.547913,253.547684 734.860046,251.889099 
	C732.250061,250.686539 731.023926,250.121597 729.553040,249.443909 
	C731.165222,248.965149 732.404907,248.597000 732.925964,248.442261 
	C733.769287,243.457626 734.522156,239.007446 735.517578,233.123352 
	C718.219299,223.667435 696.876892,221.598129 677.219238,213.302475 
	C685.790344,208.348450 693.982056,203.378815 702.391785,198.810516 
	C713.687988,192.674271 725.164978,186.871353 736.522034,180.845673 
	C737.459229,180.348450 738.878967,178.778931 738.713684,178.492355 
	C737.065552,175.634415 739.810669,175.279068 741.048950,174.347092 
	C749.017029,168.350220 752.769043,161.639206 749.683960,151.990387 
	C748.089966,147.005035 741.517883,141.138062 738.038147,142.175110 
	C732.175354,143.922333 726.410461,145.997833 719.997498,148.465408 
M271.268188,389.742828 
	C274.746735,380.575989 275.534454,370.936707 271.189392,362.322998 
	C269.132996,358.246429 269.551422,350.167419 261.131744,350.908112 
	C260.512054,350.962616 259.904419,348.954987 258.997955,348.334106 
	C255.306427,345.805511 251.672379,341.799438 247.698975,341.384460 
	C240.782791,340.662109 233.455704,341.422058 226.623566,342.977783 
	C218.374573,344.856140 210.475037,348.250946 202.396973,350.906403 
	C198.800217,352.088745 194.978989,352.705505 191.531998,354.205048 
	C179.125885,359.601868 166.984375,365.632477 154.451889,370.704590 
	C145.494949,374.329559 137.143631,378.054413 134.040207,388.239197 
	C133.853729,388.851196 133.378159,389.373901 133.044342,389.942444 
	C128.211273,398.174347 128.218842,398.166779 135.098450,404.614777 
	C141.852005,410.944611 148.790131,414.888153 158.734375,410.847839 
	C171.120193,405.815460 183.936050,401.814270 196.657852,397.647644 
	C202.826340,395.627319 209.203690,394.244690 215.486496,392.573364 
	C215.714523,393.059387 215.942566,393.545410 216.170593,394.031403 
	C215.029907,395.087158 213.898804,396.153503 212.746979,397.196930 
	C204.113556,405.017670 195.287460,412.637726 186.894409,420.708252 
	C178.950104,428.347229 171.331818,436.339478 163.832047,444.419434 
	C160.906174,447.571655 157.434525,451.084167 156.496643,454.982391 
	C155.461212,459.286133 156.488632,464.359497 157.604538,468.852539 
	C160.193375,479.276031 167.546722,486.551971 176.428497,491.404236 
	C184.608246,495.872955 193.705399,492.255737 202.101410,490.248566 
	C208.767136,488.655121 215.013336,485.352417 221.526337,483.034882 
	C222.792450,482.584351 224.429657,483.176819 225.617920,483.267120 
	C221.797134,488.005859 218.519943,492.462891 214.830795,496.547913 
	C210.069687,501.819946 204.855179,506.681488 200.069153,511.932404 
	C196.164917,516.216003 193.345093,521.916260 188.722977,525.021179 
	C180.977844,530.223938 178.239075,538.244141 174.362595,545.702698 
	C173.355713,547.640015 173.268478,550.458862 176.789215,551.002686 
	C177.564331,551.122437 178.777878,551.241638 178.991180,551.718262 
	C180.941528,556.076904 182.724930,553.886536 185.197861,552.049805 
	C188.902847,549.298157 192.946487,546.946777 197.051468,544.822021 
	C198.340576,544.154663 200.290955,544.739868 201.937225,544.795105 
	C203.414642,544.844482 204.996658,545.340271 206.347656,544.968018 
	C211.770126,543.474304 217.230179,541.999146 222.455338,539.952881 
	C225.409286,538.796021 228.205322,536.846985 230.594513,534.718262 
	C235.495956,530.351257 240.008194,525.551086 244.802704,521.059448 
	C252.985703,513.393494 261.689728,506.232788 269.388458,498.114044 
	C278.351685,488.661987 280.543274,476.303406 282.087555,463.806488 
	C283.275726,454.191559 278.719971,447.905823 271.511322,442.560669 
	C265.084473,437.795166 257.984985,435.380310 250.060959,434.999634 
	C245.687332,434.789520 241.324753,434.349365 237.098923,434.023834 
	C243.065918,427.705841 248.921204,421.825165 254.405960,415.617126 
	C261.096832,408.043976 267.920319,400.488159 271.268188,389.742828 
M519.043884,222.541824 
	C522.105835,219.336594 523.480774,213.984406 529.947327,214.369080 
	C529.947327,219.964813 528.723816,225.889816 530.224060,231.017960 
	C532.689697,239.445755 530.263916,247.397079 530.113770,255.550018 
	C530.013977,260.967377 529.058411,266.625702 530.278625,271.749207 
	C532.020081,279.061462 535.360657,285.999603 538.148438,293.046051 
	C538.439880,293.782715 539.658997,294.700775 540.362854,294.634430 
	C544.121216,294.280060 547.852661,293.639435 551.478271,293.114471 
	C552.942444,287.966675 554.213989,282.824615 555.947449,277.843323 
	C556.419495,276.486908 558.282471,275.614563 559.507080,274.520081 
	C560.732849,273.901764 561.170776,272.555634 561.554321,271.194214 
	C563.343384,264.843048 565.590515,258.576599 566.805359,252.116562 
	C570.052063,234.853058 572.930237,217.518509 575.803833,200.187164 
	C577.647461,189.067917 579.889221,177.952728 580.704590,166.744934 
	C581.334656,158.084839 579.008850,149.798874 572.208069,143.263062 
	C567.271912,138.519196 560.831604,136.685257 555.296387,133.205307 
	C546.154297,127.457726 535.541992,131.281982 529.700378,138.904526 
	C526.293579,143.350006 522.317566,147.373001 519.068115,151.922134 
	C514.066162,158.924698 509.553772,166.274872 504.669403,173.364395 
	C501.370178,178.153137 497.788422,182.747253 494.333038,187.428421 
	C493.925537,184.482666 495.214661,182.079926 494.983124,179.833954 
	C493.967896,169.986435 492.855652,160.119690 491.024902,150.401917 
	C490.410339,147.139893 487.911255,144.004150 485.661987,141.323898 
	C480.065735,134.655273 472.212524,137.530212 465.177368,137.166702 
	C464.525116,137.132996 463.455261,138.546356 463.151886,139.474854 
	C461.225739,145.370010 459.167450,151.095123 456.530884,156.819138 
	C451.489014,167.765320 448.660065,179.760056 445.247284,191.417587 
	C442.780060,199.845398 440.810883,208.420929 438.697571,216.949890 
	C436.540741,225.654541 434.933960,234.524887 432.265411,243.066208 
	C428.585358,254.845154 425.372375,266.682007 425.125092,279.051788 
	C424.970734,286.772858 425.324158,294.559570 426.287048,302.211456 
	C426.552460,304.320435 429.505493,306.945312 431.786957,307.759277 
	C435.874573,309.217651 439.317780,306.175629 442.930756,304.504364 
	C446.708588,302.756775 447.218567,297.429504 452.253601,296.922668 
	C456.754303,296.469604 462.515564,297.152802 463.222046,290.149017 
	C463.243134,289.940002 463.761414,289.812653 463.990509,289.588562 
	C474.702087,279.109833 486.613037,269.652893 492.966888,255.461426 
	C493.501404,254.267548 494.377136,253.202591 495.207611,252.168716 
	C502.997101,242.471390 510.811279,232.793884 519.043884,222.541824 
z"/>
<path fill="#486FA3" opacity="1.000000" stroke="none" 
	d="
M640.771973,429.790741 
	C635.363586,435.601227 629.876282,441.340637 624.563843,447.237579 
	C614.654236,458.237518 603.152344,467.498047 591.383118,476.269592 
	C579.847534,484.866974 567.737427,492.863892 555.176941,499.863708 
	C544.405945,505.866211 532.202271,508.195038 519.893188,510.011780 
	C508.612030,511.676758 498.808105,507.542023 490.029297,502.469421 
	C479.255646,496.244080 472.097015,485.937683 469.011322,473.390381 
	C468.467560,471.179504 467.352325,469.072632 467.058990,466.844299 
	C466.450348,462.220886 465.804016,457.535858 465.942413,452.899139 
	C466.084869,448.125336 467.142365,443.378845 467.967957,437.400299 
	C463.915192,441.734741 460.509216,445.333099 457.152710,448.976990 
	C451.317596,455.311646 446.133301,462.422455 439.565582,467.868561 
	C426.181091,478.967468 412.310059,489.527985 398.165100,499.647217 
	C385.080627,509.007782 370.481567,515.303772 354.559967,518.493408 
	C344.729584,520.462708 334.895416,521.650269 325.539642,517.561340 
	C315.985870,513.385864 306.586884,508.162598 301.131989,498.910309 
	C295.867767,489.981506 291.742126,480.360931 291.894165,469.493103 
	C291.969818,464.086395 291.307129,458.672943 291.162933,453.257599 
	C291.116119,451.499298 291.597351,449.714294 291.935028,447.960358 
	C294.568359,434.282532 299.240295,421.226501 305.775146,409.034363 
	C312.079712,397.271881 316.673126,384.596497 325.016510,373.860901 
	C328.942261,368.809570 331.152985,362.462494 334.669525,357.045837 
	C338.374908,351.338409 342.603241,345.956177 346.801941,340.587372 
	C350.933777,335.303986 355.435516,330.308929 359.539795,325.005341 
	C361.869293,321.995178 364.515015,321.016907 367.599854,323.171448 
	C370.373749,325.108826 373.624908,325.879150 375.895996,329.418091 
	C377.415833,331.786377 377.414490,335.708099 380.816284,336.969940 
	C382.343201,337.536316 383.791626,338.314270 384.297394,338.546692 
	C386.608734,340.063202 387.957886,341.638855 389.461945,341.804016 
	C393.745941,342.274445 398.209412,341.578522 402.393799,342.401489 
	C415.786560,345.035492 429.053497,348.108582 442.234589,351.866089 
	C459.142853,356.686096 468.669861,368.383118 476.069183,382.837891 
	C478.513336,387.612640 480.104309,392.824097 482.167145,398.042694 
	C482.922791,396.608093 484.020172,394.695312 484.960968,392.708405 
	C488.659943,384.896515 491.828125,376.786835 496.095123,369.301758 
	C501.887665,359.140564 508.265686,349.286499 514.847107,339.609894 
	C520.283203,331.617279 526.245239,323.968079 532.226807,316.365509 
	C536.700928,310.679047 547.165283,312.291321 550.146362,318.807373 
	C550.675598,319.964111 551.915466,320.795715 553.301270,322.287872 
	C553.033691,326.446686 555.899719,329.241882 560.531372,328.272247 
	C560.385498,328.741333 560.239685,329.210388 560.093811,329.679474 
	C561.864075,330.474518 563.571655,331.741760 565.414917,331.986298 
	C575.634583,333.342041 585.992920,333.894897 596.093811,335.822937 
	C603.674561,337.269928 610.841858,340.762482 618.367981,342.645966 
	C628.122681,345.087158 635.811340,350.081512 641.108765,358.622620 
	C645.522766,365.739349 649.944702,372.856659 654.105774,380.121155 
	C655.291687,382.191467 655.578857,384.776550 656.529785,387.970612 
	C658.273499,384.298248 659.673279,381.069000 661.307007,377.962799 
	C666.021729,368.998535 670.679077,359.998291 675.651245,351.176971 
	C679.559082,344.244019 683.770752,337.471130 688.105652,330.794769 
	C690.315674,327.390930 693.138000,324.389557 695.604797,321.146362 
	C699.609680,315.881012 703.269714,310.322449 707.603943,305.348175 
	C711.216003,301.202667 721.608765,303.527557 724.144348,308.518707 
	C724.792603,309.794678 726.025696,310.773468 727.490601,312.467712 
	C727.119141,316.460358 730.042419,319.305603 734.746277,318.452576 
	C734.605103,318.923065 734.463928,319.393555 734.322815,319.864044 
	C735.925720,320.608307 737.513977,321.960907 739.133972,322.000031 
	C751.378845,322.295715 763.308533,324.665039 775.126831,327.496613 
	C783.659302,329.540924 792.280884,331.700470 800.334534,335.070770 
	C805.047119,337.042847 809.571655,340.851837 812.679504,344.968048 
	C818.312500,352.428528 823.548706,360.385132 827.613831,368.781769 
	C832.390869,378.648926 830.430786,389.271973 826.116211,398.711121 
	C822.088257,407.523407 816.576233,415.773987 810.884766,423.671753 
	C806.459717,429.812286 801.199219,435.532410 795.527954,440.556641 
	C782.277832,452.294922 769.116028,464.261139 754.888000,474.735382 
	C736.396606,488.348267 716.084106,497.941925 692.481567,500.315247 
	C684.054626,501.162598 677.873535,497.461914 670.737366,495.708496 
	C661.087341,493.337341 654.668213,485.952057 649.673523,478.252502 
	C645.531738,471.867706 644.045410,463.805145 641.024597,456.636780 
	C637.405273,448.048370 640.932800,439.749878 641.704102,430.700562 
	C641.807434,429.651611 641.717957,429.230438 641.628418,428.809296 
	C641.342896,429.136444 641.057434,429.463593 640.771973,429.790741 
M516.587830,464.870636 
	C524.752380,461.928284 533.363831,459.836517 540.973633,455.838287 
	C551.595032,450.257782 561.939880,443.881500 571.529602,436.682220 
	C581.243591,429.389648 590.605591,421.383270 597.159424,410.779999 
	C600.383606,405.563660 604.012695,400.569305 606.866211,395.161896 
	C608.810547,391.477386 609.728516,387.251221 611.294922,382.718903 
	C609.609680,378.594513 606.027649,376.049377 600.642822,375.102448 
	C592.625610,373.692566 585.084351,371.064301 576.491760,373.622925 
	C568.752319,375.927551 560.301147,375.746613 552.252258,377.163696 
	C549.703003,377.612488 546.496033,379.079712 545.211548,381.107849 
	C540.480469,388.577881 535.938477,396.251801 532.234192,404.268951 
	C526.268372,417.180664 521.243347,430.524902 515.381409,443.487671 
	C512.477417,449.909485 511.841766,456.394379 511.915802,461.876373 
	C513.799011,463.295471 514.767700,464.025391 515.906616,464.842743 
	C515.906616,464.842743 515.776123,464.958435 515.776123,464.958435 
	C515.776123,464.958435 515.785522,464.653351 516.587830,464.870636 
M352.255615,425.736603 
	C345.321045,440.831085 337.299561,455.584808 336.796173,473.943512 
	C341.612732,473.629150 345.735260,473.655762 349.740570,472.983856 
	C352.011810,472.602814 354.140167,471.169464 356.248138,470.050415 
	C366.102631,464.819000 376.111023,459.841034 385.695557,454.151154 
	C391.599915,450.646057 397.122833,446.345947 402.302338,441.814575 
	C407.611420,437.169800 412.492065,431.984406 417.180908,426.699127 
	C420.402161,423.068146 422.425690,418.257935 425.957855,415.044708 
	C432.551422,409.046448 432.700256,400.354218 436.260712,393.135345 
	C436.668793,392.307983 435.735657,389.995178 434.810242,389.484894 
	C431.750824,387.797974 428.472809,386.441681 425.164490,385.285034 
	C417.217133,382.506531 409.168640,380.746033 400.849915,383.921448 
	C399.939789,384.268890 398.888702,384.258118 397.899323,384.384979 
	C391.082306,385.259064 384.176514,385.722839 377.487610,387.182068 
	C374.592651,387.813660 371.076660,389.887268 369.678375,392.348663 
	C363.604736,403.039917 358.207642,414.115540 352.255615,425.736603 
M782.929199,382.341736 
	C783.328918,380.635559 783.249084,378.557098 784.225830,377.298859 
	C786.418152,374.474579 786.264465,371.880981 783.567932,370.126099 
	C780.341370,368.026245 776.763367,366.199799 773.083191,365.129486 
	C768.227905,363.717468 763.034119,362.050293 758.147888,362.454041 
	C747.402832,363.341858 736.724182,365.268433 726.100464,367.218109 
	C723.570496,367.682373 720.468811,369.343048 719.167603,371.417725 
	C714.472046,378.904388 709.954346,386.581818 706.254761,394.595917 
	C700.363770,407.357239 695.457458,420.572479 689.586853,433.343964 
	C686.625610,439.786133 686.030396,446.279053 685.932495,452.794067 
	C688.591248,453.588959 690.963440,455.159302 692.827271,454.693939 
	C698.415283,453.298676 704.169678,451.787201 709.195679,449.086517 
	C719.667664,443.459686 729.971741,437.425812 739.847778,430.816498 
	C747.041687,426.002075 754.413574,420.829834 759.964417,414.329834 
	C768.303467,404.564819 775.117920,393.497864 782.929199,382.341736 
z"/>
<path fill="#E3737B" opacity="1.000000" stroke="none" 
	d="
M72.001846,144.786148 
	C71.888214,142.009369 72.114586,140.770233 75.103340,139.554642 
	C78.506332,138.170578 81.593346,134.715591 83.566437,131.413132 
	C86.525391,126.460579 91.667587,125.436592 95.987251,123.076485 
	C105.041763,118.129448 114.210342,113.299477 123.679901,109.231041 
	C132.182907,105.577873 141.168793,103.056831 149.904388,99.932152 
	C152.708908,98.928993 155.341339,97.444923 158.145569,96.440781 
	C164.525635,94.156212 171.019821,92.182846 177.360535,89.798256 
	C182.849731,87.733902 188.078766,84.940483 193.628479,83.084335 
	C199.725296,81.045197 206.057129,79.708542 212.287018,78.067551 
	C219.314911,76.216354 226.315964,74.254044 233.378235,72.544792 
	C242.830063,70.257202 252.276321,67.885147 261.825256,66.079681 
	C269.514923,64.625755 277.616364,64.873848 285.065643,62.733116 
	C296.895508,59.333488 308.661041,60.518784 320.558289,60.721855 
	C326.915802,60.830368 333.289398,59.535625 339.669434,59.056377 
	C341.759857,58.899353 343.944366,59.079437 345.996490,59.520805 
	C350.077881,60.398624 353.952026,61.684601 357.931885,58.700970 
	C359.263855,57.702415 361.714935,58.123814 363.660889,58.030376 
	C369.916687,57.729969 376.222626,56.962124 382.408203,57.511559 
	C384.639160,57.709724 386.584045,61.128723 388.659485,63.077904 
	C387.661224,63.689201 386.479095,64.998505 385.696228,64.792236 
	C382.111176,63.847618 379.775909,65.393890 376.759796,67.178535 
	C373.711578,68.982193 369.337189,68.445259 365.604340,69.224159 
	C362.842926,69.800354 360.178711,70.842262 357.471191,71.676689 
	C357.620972,72.334129 357.770752,72.991562 357.920532,73.649002 
	C362.850403,73.649002 367.780304,73.649002 372.710205,73.649002 
	C372.701904,74.048164 372.693604,74.447327 372.685303,74.846481 
	C373.389038,74.221558 374.092773,73.596626 375.228455,72.588142 
	C375.912323,74.940514 376.472260,76.866524 377.074707,78.938805 
	C375.009064,79.919922 373.144165,80.805702 370.261444,82.174911 
	C372.527832,83.203133 373.729767,83.748428 374.964539,84.308624 
	C374.710754,84.834541 374.638733,85.308060 374.419586,85.390511 
	C369.140961,87.376381 364.714294,90.596962 360.029297,93.709831 
	C352.494965,98.715897 343.637115,102.465073 334.819458,104.665245 
	C309.579987,110.962982 284.061890,116.137184 258.691254,121.919601 
	C249.580063,123.996216 240.569275,126.517914 231.528656,128.897263 
	C228.089859,129.802307 224.653427,130.732941 224.871216,135.517776 
	C224.916077,136.503052 224.012268,137.602341 223.379868,138.536835 
	C215.609009,150.019547 207.718811,161.422607 200.050095,172.972839 
	C196.099442,178.923126 192.528778,185.125687 188.115234,192.306213 
	C191.431747,191.710953 193.747284,191.937241 195.204895,190.926392 
	C202.920898,185.575424 211.865570,185.860931 220.563782,184.437561 
	C231.723984,182.611328 242.614410,179.183792 253.745972,177.119873 
	C262.244446,175.544159 270.921173,174.838242 279.547150,174.063202 
	C292.510223,172.898468 305.498993,172.020889 318.474182,170.987946 
	C319.425201,170.912247 321.101410,170.720383 321.182007,170.325638 
	C322.326965,164.716324 327.756226,166.726288 330.880188,164.731125 
	C331.282959,164.473877 331.930939,164.064713 332.199768,164.211670 
	C339.951508,168.449829 350.084259,167.552170 356.226074,175.043564 
	C357.762939,176.918106 358.443207,179.701843 358.941284,182.183319 
	C360.620911,190.551605 357.637177,198.135208 354.313446,205.522781 
	C350.364685,214.299561 346.080078,222.924683 342.006897,231.646317 
	C340.507965,234.855911 339.197083,238.153320 337.800446,241.410675 
	C338.132660,241.668304 338.464905,241.925919 338.797150,242.183533 
	C343.856262,236.773773 349.294952,231.665131 353.882629,225.881424 
	C360.253632,217.849564 365.292023,208.674759 372.180664,201.162857 
	C379.544830,193.132401 385.324432,184.174438 391.422882,175.309174 
	C395.885284,168.822189 401.260040,162.969101 406.005737,156.666031 
	C407.115875,155.191559 407.882996,153.028488 407.846893,151.201218 
	C407.734222,145.499847 413.330505,145.802475 415.992340,143.077240 
	C416.139893,142.926147 417.646515,143.685471 418.094849,144.321213 
	C419.602631,146.459564 420.917725,148.733765 422.787567,151.725677 
	C430.116547,153.293076 441.180847,160.497513 437.368469,171.599884 
	C434.552704,179.799820 432.369110,188.217316 429.536987,196.411057 
	C423.962311,212.539368 415.818787,227.890274 413.593689,245.025894 
	C411.591339,260.445801 409.957611,275.973602 409.491455,291.493774 
	C409.363556,295.751068 408.855835,297.752502 405.405823,299.226318 
	C404.364838,299.671082 403.164581,299.957581 402.038391,299.954102 
	C393.780853,299.928467 386.682281,296.067444 381.729218,290.332245 
	C377.862427,285.854797 375.287445,279.622284 375.304443,272.981323 
	C375.312683,269.775360 374.685974,266.567780 374.387146,263.742920 
	C355.761871,279.831268 337.505768,295.600739 319.892578,310.814850 
	C314.790863,309.540009 310.906311,308.743927 307.143951,307.559753 
	C305.085846,306.911987 303.045868,305.856110 301.327271,304.550476 
	C297.236237,301.442413 293.121979,298.305176 289.420715,294.758484 
	C284.445496,289.991028 281.466919,284.481201 282.190399,276.965424 
	C283.600922,262.312714 287.825775,248.696777 294.687195,235.726837 
	C298.007202,229.451172 300.595978,222.789688 303.543701,216.315582 
	C305.007538,213.100555 306.534393,209.914215 307.828308,207.151428 
	C296.627655,209.813660 285.284119,212.006149 274.263062,215.283188 
	C264.852081,218.081421 255.861130,222.263763 246.594955,225.584305 
	C233.780243,230.176483 220.836990,234.410904 208.034164,239.034958 
	C199.019577,242.290787 190.223679,246.157639 181.184982,249.339340 
	C174.819855,251.579941 168.212540,253.133652 161.710327,254.983429 
	C157.121460,256.288910 152.504028,257.499664 147.941986,258.892365 
	C142.677505,260.499481 139.026306,264.013977 137.008713,269.078583 
	C135.240448,273.517303 133.987518,278.173218 132.044495,282.526764 
	C130.409195,286.190765 127.916435,289.463379 126.139755,293.074768 
	C121.356850,302.796753 116.693420,312.579010 112.109863,322.396759 
	C110.326492,326.216644 109.209663,330.379425 107.151154,334.025848 
	C106.101173,335.885742 103.639755,336.948853 102.552750,337.797302 
	C100.284164,336.682068 98.317276,335.715179 96.015099,334.583435 
	C94.709213,338.709625 93.595123,342.229828 92.213264,346.596069 
	C90.535049,344.637634 89.118347,342.984344 87.568916,341.176178 
	C87.121468,342.043030 86.715111,342.830231 86.189705,343.848083 
	C84.953537,342.933289 83.824768,342.097961 82.258423,340.938782 
	C82.118484,342.395996 82.016510,343.457855 81.836075,345.336700 
	C78.958046,344.550018 76.116714,344.025208 73.509598,342.938538 
	C72.444946,342.494751 71.528305,340.937622 71.172150,339.705505 
	C70.356743,336.884644 69.927849,333.952026 68.264198,331.345703 
	C68.620682,329.518707 69.615288,327.540619 69.224541,325.890564 
	C67.413017,318.240692 70.808815,311.452759 72.448502,304.412201 
	C73.624535,299.362518 75.624443,294.510742 77.039795,289.509247 
	C78.950478,282.757446 81.472633,276.043274 82.286041,269.142487 
	C84.447472,250.805176 94.464851,235.387909 100.433830,218.492905 
	C105.189751,205.031464 112.095596,192.306412 118.415573,179.435394 
	C120.216515,175.767685 123.305008,172.732178 125.803062,169.406754 
	C125.445915,169.017853 125.088760,168.628952 124.731613,168.240051 
	C121.064049,170.082687 117.471497,172.100052 113.706787,173.716431 
	C110.273048,175.190689 106.704918,176.424042 103.097092,177.396606 
	C100.478233,178.102570 98.984940,180.253937 95.411766,180.408615 
	C89.355408,180.670746 86.427689,174.864731 80.980080,175.267761 
	C80.624832,175.294037 80.014854,174.040207 79.787453,173.300644 
	C77.167122,164.778412 74.580521,156.245621 72.044632,147.697922 
	C71.817261,146.931503 72.006172,146.041580 72.001846,144.786148 
M370.811310,83.471771 
	C370.811310,83.471771 370.575134,83.374908 370.575134,83.374908 
	C370.575134,83.374908 370.635498,83.605598 370.811310,83.471771 
M337.499847,242.755524 
	C337.617340,242.655273 337.817841,242.563370 337.828979,242.452423 
	C337.840118,242.341568 337.661774,242.211670 337.566498,242.090103 
	C337.449005,242.190353 337.331512,242.290604 337.499847,242.755524 
z"/>
<path fill="#E3737B" opacity="1.000000" stroke="none" 
	d="
M720.300903,148.200348 
	C726.410461,145.997833 732.175354,143.922333 738.038147,142.175110 
	C741.517883,141.138062 748.089966,147.005035 749.683960,151.990387 
	C752.769043,161.639206 749.017029,168.350220 741.048950,174.347092 
	C739.810669,175.279068 737.065552,175.634415 738.713684,178.492355 
	C738.878967,178.778931 737.459229,180.348450 736.522034,180.845673 
	C725.164978,186.871353 713.687988,192.674271 702.391785,198.810516 
	C693.982056,203.378815 685.790344,208.348450 677.219238,213.302475 
	C696.876892,221.598129 718.219299,223.667435 735.517578,233.123352 
	C734.522156,239.007446 733.769287,243.457626 732.925964,248.442261 
	C732.404907,248.597000 731.165222,248.965149 729.553040,249.443909 
	C731.023926,250.121597 732.250061,250.686539 734.860046,251.889099 
	C729.547913,253.547684 725.390503,254.717209 721.323792,256.144989 
	C714.930298,258.389740 709.536255,255.225388 703.769348,253.433884 
	C698.513977,251.801270 692.784851,251.578171 687.662842,249.666611 
	C683.276855,248.029739 679.034302,247.059174 674.385925,246.588394 
	C669.010315,246.043976 663.786987,244.101456 658.461914,242.927475 
	C651.210815,241.328842 643.925964,239.883072 636.610046,238.362305 
	C630.987488,255.973541 625.609192,272.819702 619.998413,290.393921 
	C618.928101,288.870087 618.285706,287.955536 617.339600,286.608582 
	C616.484497,291.491699 615.873535,295.898712 614.915222,300.228912 
	C613.614990,306.104523 611.154785,311.071289 604.686707,313.055267 
	C602.900696,313.603088 601.661987,315.757263 599.901978,316.628815 
	C598.687073,317.230408 596.271301,317.561157 595.649048,316.874268 
	C588.910156,309.435913 585.572449,300.947968 586.829651,290.549500 
	C587.692993,283.408661 586.590332,276.039825 587.325012,268.871124 
	C588.077148,261.532074 590.531250,254.364182 591.238953,247.024796 
	C591.814270,241.059692 590.438599,234.921234 590.828430,228.918106 
	C591.079773,225.046432 592.102112,220.648254 594.330688,217.632965 
	C596.899658,214.157166 600.728271,211.825256 603.129272,207.706207 
	C607.402283,200.375381 609.345947,192.365860 612.071533,184.547470 
	C615.464600,174.814316 619.257996,165.221207 622.826538,155.548462 
	C623.970093,152.448944 624.595398,149.111435 626.062500,146.186020 
	C633.120483,132.111969 640.586487,118.240196 647.512268,104.102898 
	C652.919434,93.065506 657.690063,81.717674 662.877319,70.570030 
	C663.975769,68.209503 665.745972,66.171425 667.051208,63.895645 
	C673.796997,52.134537 680.114868,40.105404 687.363403,28.664801 
	C691.021973,22.890232 700.570801,21.550619 706.587769,25.007282 
	C711.127869,27.615519 715.760742,30.103546 720.063171,33.065174 
	C721.975952,34.381874 724.638306,36.898800 724.447266,38.586475 
	C723.620178,45.894444 723.257935,53.764225 720.173828,60.207863 
	C712.333923,76.587769 702.748596,92.122818 694.572632,108.354034 
	C686.815735,123.753288 679.997498,139.624023 672.689941,155.251648 
	C669.964783,161.079636 667.023010,166.806320 664.704712,173.477020 
	C673.938965,168.612915 682.977478,163.317688 692.464294,159.009720 
	C701.396240,154.953705 710.800842,151.938522 720.300903,148.200348 
z"/>
<path fill="#486FA3" opacity="1.000000" stroke="none" 
	d="
M271.139526,390.123535 
	C267.920319,400.488159 261.096832,408.043976 254.405960,415.617126 
	C248.921204,421.825165 243.065918,427.705841 237.098923,434.023834 
	C241.324753,434.349365 245.687332,434.789520 250.060959,434.999634 
	C257.984985,435.380310 265.084473,437.795166 271.511322,442.560669 
	C278.719971,447.905823 283.275726,454.191559 282.087555,463.806488 
	C280.543274,476.303406 278.351685,488.661987 269.388458,498.114044 
	C261.689728,506.232788 252.985703,513.393494 244.802704,521.059448 
	C240.008194,525.551086 235.495956,530.351257 230.594513,534.718262 
	C228.205322,536.846985 225.409286,538.796021 222.455338,539.952881 
	C217.230179,541.999146 211.770126,543.474304 206.347656,544.968018 
	C204.996658,545.340271 203.414642,544.844482 201.937225,544.795105 
	C200.290955,544.739868 198.340576,544.154663 197.051468,544.822021 
	C192.946487,546.946777 188.902847,549.298157 185.197861,552.049805 
	C182.724930,553.886536 180.941528,556.076904 178.991180,551.718262 
	C178.777878,551.241638 177.564331,551.122437 176.789215,551.002686 
	C173.268478,550.458862 173.355713,547.640015 174.362595,545.702698 
	C178.239075,538.244141 180.977844,530.223938 188.722977,525.021179 
	C193.345093,521.916260 196.164917,516.216003 200.069153,511.932404 
	C204.855179,506.681488 210.069687,501.819946 214.830795,496.547913 
	C218.519943,492.462891 221.797134,488.005859 225.617920,483.267120 
	C224.429657,483.176819 222.792450,482.584351 221.526337,483.034882 
	C215.013336,485.352417 208.767136,488.655121 202.101410,490.248566 
	C193.705399,492.255737 184.608246,495.872955 176.428497,491.404236 
	C167.546722,486.551971 160.193375,479.276031 157.604538,468.852539 
	C156.488632,464.359497 155.461212,459.286133 156.496643,454.982391 
	C157.434525,451.084167 160.906174,447.571655 163.832047,444.419434 
	C171.331818,436.339478 178.950104,428.347229 186.894409,420.708252 
	C195.287460,412.637726 204.113556,405.017670 212.746979,397.196930 
	C213.898804,396.153503 215.029907,395.087158 216.170593,394.031403 
	C215.942566,393.545410 215.714523,393.059387 215.486496,392.573364 
	C209.203690,394.244690 202.826340,395.627319 196.657852,397.647644 
	C183.936050,401.814270 171.120193,405.815460 158.734375,410.847839 
	C148.790131,414.888153 141.852005,410.944611 135.098450,404.614777 
	C128.218842,398.166779 128.211273,398.174347 133.044342,389.942444 
	C133.378159,389.373901 133.853729,388.851196 134.040207,388.239197 
	C137.143631,378.054413 145.494949,374.329559 154.451889,370.704590 
	C166.984375,365.632477 179.125885,359.601868 191.531998,354.205048 
	C194.978989,352.705505 198.800217,352.088745 202.396973,350.906403 
	C210.475037,348.250946 218.374573,344.856140 226.623566,342.977783 
	C233.455704,341.422058 240.782791,340.662109 247.698975,341.384460 
	C251.672379,341.799438 255.306427,345.805511 258.997955,348.334106 
	C259.904419,348.954987 260.512054,350.962616 261.131744,350.908112 
	C269.551422,350.167419 269.132996,358.246429 271.189392,362.322998 
	C275.534454,370.936707 274.746735,380.575989 271.139526,390.123535 
z"/>
<path fill="#E3737B" opacity="1.000000" stroke="none" 
	d="
M518.831055,222.826233 
	C510.811279,232.793884 502.997101,242.471390 495.207611,252.168716 
	C494.377136,253.202591 493.501404,254.267548 492.966888,255.461426 
	C486.613037,269.652893 474.702087,279.109833 463.990509,289.588562 
	C463.761414,289.812653 463.243134,289.940002 463.222046,290.149017 
	C462.515564,297.152802 456.754303,296.469604 452.253601,296.922668 
	C447.218567,297.429504 446.708588,302.756775 442.930756,304.504364 
	C439.317780,306.175629 435.874573,309.217651 431.786957,307.759277 
	C429.505493,306.945312 426.552460,304.320435 426.287048,302.211456 
	C425.324158,294.559570 424.970734,286.772858 425.125092,279.051788 
	C425.372375,266.682007 428.585358,254.845154 432.265411,243.066208 
	C434.933960,234.524887 436.540741,225.654541 438.697571,216.949890 
	C440.810883,208.420929 442.780060,199.845398 445.247284,191.417587 
	C448.660065,179.760056 451.489014,167.765320 456.530884,156.819138 
	C459.167450,151.095123 461.225739,145.370010 463.151886,139.474854 
	C463.455261,138.546356 464.525116,137.132996 465.177368,137.166702 
	C472.212524,137.530212 480.065735,134.655273 485.661987,141.323898 
	C487.911255,144.004150 490.410339,147.139893 491.024902,150.401917 
	C492.855652,160.119690 493.967896,169.986435 494.983124,179.833954 
	C495.214661,182.079926 493.925537,184.482666 494.333038,187.428421 
	C497.788422,182.747253 501.370178,178.153137 504.669403,173.364395 
	C509.553772,166.274872 514.066162,158.924698 519.068115,151.922134 
	C522.317566,147.373001 526.293579,143.350006 529.700378,138.904526 
	C535.541992,131.281982 546.154297,127.457726 555.296387,133.205307 
	C560.831604,136.685257 567.271912,138.519196 572.208069,143.263062 
	C579.008850,149.798874 581.334656,158.084839 580.704590,166.744934 
	C579.889221,177.952728 577.647461,189.067917 575.803833,200.187164 
	C572.930237,217.518509 570.052063,234.853058 566.805359,252.116562 
	C565.590515,258.576599 563.343384,264.843048 561.554321,271.194214 
	C561.170776,272.555634 560.732849,273.901764 559.507080,274.520081 
	C558.282471,275.614563 556.419495,276.486908 555.947449,277.843323 
	C554.213989,282.824615 552.942444,287.966675 551.478271,293.114471 
	C547.852661,293.639435 544.121216,294.280060 540.362854,294.634430 
	C539.658997,294.700775 538.439880,293.782715 538.148438,293.046051 
	C535.360657,285.999603 532.020081,279.061462 530.278625,271.749207 
	C529.058411,266.625702 530.013977,260.967377 530.113770,255.550018 
	C530.263916,247.397079 532.689697,239.445755 530.224060,231.017960 
	C528.723816,225.889816 529.947327,219.964813 529.947327,214.369080 
	C523.480774,213.984406 522.105835,219.336594 518.831055,222.826233 
z"/>
<path fill="#000101" opacity="1.000000" stroke="none" 
	d="
M352.410095,425.394043 
	C358.207642,414.115540 363.604736,403.039917 369.678375,392.348663 
	C371.076660,389.887268 374.592651,387.813660 377.487610,387.182068 
	C384.176514,385.722839 391.082306,385.259064 397.899323,384.384979 
	C398.888702,384.258118 399.939789,384.268890 400.849915,383.921448 
	C409.168640,380.746033 417.217133,382.506531 425.164490,385.285034 
	C428.472809,386.441681 431.750824,387.797974 434.810242,389.484894 
	C435.735657,389.995178 436.668793,392.307983 436.260712,393.135345 
	C432.700256,400.354218 432.551422,409.046448 425.957855,415.044708 
	C422.425690,418.257935 420.402161,423.068146 417.180908,426.699127 
	C412.492065,431.984406 407.611420,437.169800 402.302338,441.814575 
	C397.122833,446.345947 391.599915,450.646057 385.695557,454.151154 
	C376.111023,459.841034 366.102631,464.819000 356.248138,470.050415 
	C354.140167,471.169464 352.011810,472.602814 349.740570,472.983856 
	C345.735260,473.655762 341.612732,473.629150 336.796173,473.943512 
	C337.299561,455.584808 345.321045,440.831085 352.410095,425.394043 
z"/>
<path fill="#000101" opacity="1.000000" stroke="none" 
	d="
M515.736328,464.755280 
	C514.767700,464.025391 513.799011,463.295471 511.915802,461.876373 
	C511.841766,456.394379 512.477417,449.909485 515.381409,443.487671 
	C521.243347,430.524902 526.268372,417.180664 532.234192,404.268951 
	C535.938477,396.251801 540.480469,388.577881 545.211548,381.107849 
	C546.496033,379.079712 549.703003,377.612488 552.252258,377.163696 
	C560.301147,375.746613 568.752319,375.927551 576.491760,373.622925 
	C585.084351,371.064301 592.625610,373.692566 600.642822,375.102448 
	C606.027649,376.049377 609.609680,378.594513 611.294922,382.718903 
	C609.728516,387.251221 608.810547,391.477386 606.866211,395.161896 
	C604.012695,400.569305 600.383606,405.563660 597.159424,410.779999 
	C590.605591,421.383270 581.243591,429.389648 571.529602,436.682220 
	C561.939880,443.881500 551.595032,450.257782 540.973633,455.838287 
	C533.363831,459.836517 524.752380,461.928284 516.198059,464.798889 
	C515.808289,464.727173 515.736328,464.755280 515.736328,464.755280 
z"/>
<path fill="#000001" opacity="1.000000" stroke="none" 
	d="
M782.754883,382.663086 
	C775.117920,393.497864 768.303467,404.564819 759.964417,414.329834 
	C754.413574,420.829834 747.041687,426.002075 739.847778,430.816498 
	C729.971741,437.425812 719.667664,443.459686 709.195679,449.086517 
	C704.169678,451.787201 698.415283,453.298676 692.827271,454.693939 
	C690.963440,455.159302 688.591248,453.588959 685.932495,452.794067 
	C686.030396,446.279053 686.625610,439.786133 689.586853,433.343964 
	C695.457458,420.572479 700.363770,407.357239 706.254761,394.595917 
	C709.954346,386.581818 714.472046,378.904388 719.167603,371.417725 
	C720.468811,369.343048 723.570496,367.682373 726.100464,367.218109 
	C736.724182,365.268433 747.402832,363.341858 758.147888,362.454041 
	C763.034119,362.050293 768.227905,363.717468 773.083191,365.129486 
	C776.763367,366.199799 780.341370,368.026245 783.567932,370.126099 
	C786.264465,371.880981 786.418152,374.474579 784.225830,377.298859 
	C783.249084,378.557098 783.328918,380.635559 782.754883,382.663086 
z"/>
<path fill="#000000" opacity="1.000000" stroke="none" 
	d="
M640.989319,429.967712 
	C641.057434,429.463593 641.342896,429.136444 641.628418,428.809296 
	C641.717957,429.230438 641.807434,429.651611 641.773682,430.279968 
	C641.502502,430.372986 641.354553,430.258820 640.989319,429.967712 
z"/>
<path fill="#000101" opacity="1.000000" stroke="none" 
	d="
M515.796875,464.690247 
	C515.785522,464.653351 515.776123,464.958435 515.776123,464.958435 
	C515.776123,464.958435 515.906616,464.842743 515.821472,464.799011 
	C515.736328,464.755280 515.808289,464.727173 515.796875,464.690247 
z"/>
<path fill="#000000" opacity="1.000000" stroke="none" 
	d="
M370.723389,83.538681 
	C370.635498,83.605598 370.575134,83.374908 370.575134,83.374908 
	C370.575134,83.374908 370.811310,83.471771 370.723389,83.538681 
z"/>
<path fill="#000000" opacity="1.000000" stroke="none" 
	d="
M337.356934,242.573181 
	C337.331512,242.290604 337.449005,242.190353 337.566498,242.090103 
	C337.661774,242.211670 337.840118,242.341568 337.828979,242.452423 
	C337.817841,242.563370 337.617340,242.655273 337.356934,242.573181 
z"/>
</svg>